<?xml version="1.0" encoding="utf-8"?>
<!-- Generator: Adobe Illustrator 23.0.6, SVG Export Plug-In . SVG Version: 6.00 Build 0)  -->
<svg version="1.1" id="Capa_1" xmlns="http://www.w3.org/2000/svg" xmlns:xlink="http://www.w3.org/1999/xlink" x="0px" y="0px"
	 viewBox="0 0 344.8 351.8" style="enable-background:new 0 0 344.8 351.8;" xml:space="preserve">
<path id="pos" d="M295,302.5L295,302.5c0.3-0.5,0.4-1.2,0.4-1.9v-43.2c0-0.4-0.4-0.8-0.4-1.1l0,0L183.2,37.1
	c-0.5-8-4.7-15.4-11.2-20.1c-11.9-8.9-31.6-9.7-52.6-3c-33.5,10.8-60,38-60,61.5v225.1c0,2.3,1.5,4.4,3.7,5.2l112.2,36.5l0,0
	c0.6,0.2,1.2,0.3,1.9,0.4c0.6,0.1,1.3-0.1,1.9-0.4l0,0l112.6-36.5l0,0c0.5-0.1,1.1-0.4,1.5-0.8h0.4l1.1-1.1v-0.4
	C294.7,303.2,294.8,302.8,295,302.5z M180.2,288.7l-12.7-24.6l83.9-28.3v29.5L180.2,288.7z M200.7,137.7v45.8l-63.4,21.2l-20.1-39.1
	L200.7,137.7z M226.1,187v45.9l-63.8,21.6l-20.1-39.1L226.1,187z M260.4,223.5c-1.5-1.2-3.5-1.5-5.2-0.8l-17.9,6v-49.6
	c0.1-1.8-0.8-3.4-2.3-4.5c-1.5-1.2-3.5-1.5-5.2-0.8l-17.9,6v-49.9c0.1-1.8-0.8-3.4-2.3-4.5c-1.5-1.2-3.5-1.5-5.2-0.8l-21.6,7.1V62.1
	l98.7,193.4l-19,6V228C262.7,226.1,261.9,224.4,260.4,223.5L260.4,223.5z M122.8,24.5c17.2-5.6,33.5-5.2,42.4,1.2
	c4.3,2.9,6.7,7.9,6.3,13.1v96.5L112,155.3L70.6,74.5C71.8,56.1,95.2,33.8,122.8,24.5z M70.7,98.6l101,198.3v32.8l-101-33.2V98.6z
	 M182.9,299.5l101.4-32.8v30.2l-101.4,32.8V299.5z"/>
</svg>
