<?xml version="1.0" encoding="utf-8"?>
<!-- Generator: Adobe Illustrator 23.0.6, SVG Export Plug-In . SVG Version: 6.00 Build 0)  -->
<svg version="1.1" id="Capa_1" xmlns="http://www.w3.org/2000/svg" xmlns:xlink="http://www.w3.org/1999/xlink" x="0px" y="0px"
	 viewBox="0 0 344.8 351.8" style="enable-background:new 0 0 344.8 351.8;" xml:space="preserve">
<style type="text/css">
	.st0{display:none;}
	.st1{display:inline;}
	.st2{display:inline;fill:#FFFFFF;}
</style>
<g class="st0">
	<g class="st1">
		<path d="M329.3,102.2c2.2-5.7-0.1-12.6-1.1-18.4c-1.5-8.6-1.4-18.7-4.3-26.9c-1.7-4.7-5.3-6.7-9.9-7.5c-8.5-1.6-17.2-2.2-25.7-3.7
			c-16.5-2.8-33-6.3-49.3-10.3C221,31,203.6,25,185.7,20.3c-12.9-3.4-26.6-3.7-37.5,4.3C145.4,12,138.5,2,122,5.7
			C103.9,9.8,85,21.3,73.6,36c-6.9,8.9-14.1,24.6-10.2,36.2C50.5,78.4,37.2,84.6,25,91.9c-11.9,7.2-9.9,19.2-7.7,31.2
			c1.1,6.3,2.3,13.3,5.1,19.2c1.7,3.5,4,5.6,7,7c4.8,34.6,10.1,69.1,15.8,103.6c1.4,8.3,2.7,16.7,4.1,25c1.2,7.2,1.2,16.2,5.3,22.4
			c3.3,5,8.7,6.8,14.2,8.4c8.9,2.6,17.7,5.5,26.6,8.3c1.7,0.5,3,0.2,4.1-0.7c0.7,1.1,1.6,2.2,2.7,3.2c5.1,4.3,13.1,6.2,19.3,8.3
			c5.9,2,16.1,7.2,21.9,2.8c0.3-0.2,0.6-0.5,0.8-0.7c10.7,3.7,21.5,7,32.5,10c11.3,3.1,23.4,8,35,9.1c10.9,1,19.8-6.8,28.2-12.7
			c9.6-6.7,19-13.8,28.3-21.1c18.6-14.7,37.5-30.2,53.7-47.6c7.7-8.3,6.5-18.1,6.4-28.8c-0.1-13.4-0.4-26.7-0.7-40.1
			c-0.8-29.5-2.3-59-4.3-88.5C325.8,107.8,328.1,105.3,329.3,102.2z M246.1,48c19.7,4.5,39.6,8,59.5,11.4
			c-18.9,15.9-38.1,31.4-57.5,46.7c-10.2,8.1-20.4,16.2-30.9,23.9c-6.6,4.9-11.7,6.1-19.6,4.3c-6.6-1.6-13.2-3.4-19.8-5.1
			c-13.3-3.5-26.6-6.9-39.9-10.1c1.9-1.3,3.9-2.4,5.5-3.5c3.7-2.6,7.3-5.2,11-7.7c0.8,1.7,1.8,3.4,3,4.9c5.4,6.9,13.6,8.9,22,7.5
			c20.3-3.4,40.1-20.6,52.7-36.1C238.7,76.2,248.6,59.9,246.1,48z M152,100.1c-6.6,4.3-13.1,8.7-19.7,13c-1.7,1.1-3.3,2.2-4.9,3.4
			c-11.4-2.7-22.9-5.2-34.4-7.5c1.1-1,2.4-1.9,4.2-3c4.4-2.8,8.9-5.5,13.3-8.4c7.6-5.1,15.1-10.1,22.8-15c4.7,3.8,12.1,4.6,17.9,4.1
			C151.1,91.2,151.2,95.8,152,100.1z M129.5,129.1c0.2-1.5,0.8-2.8,1.6-4c19.7,4.8,39.4,9.9,58.9,15c5.7,1.5,10.8,2.7,15.7,2.6
			c0.3,12.5,0,25.3,0.9,37.9c-2.4-0.4-4.8-1.2-7-1.8c-7.5-2-15.1-4-22.6-6.1c-14.9-4.1-29.8-8.7-44.7-12.6c0-0.3-0.1-0.6-0.1-0.9
			l-1.6-16.2C130.2,138.6,128.9,133.5,129.5,129.1z M227.3,45.7c3.5,0.3,7.2,1,8.1,4.7c0.7,3.2-0.7,7.2-1.7,10.2
			c-2.5,7.3-7,13.8-12.1,19.5c-9.2,10.2-20.8,20.2-33.2,26.2c-7.1,3.5-16.9,6.8-23.4,0.6c-5.8-5.5-6.4-14.1-6.3-21.7
			c6.5-2,12.3-6,16.6-11.4c0.9,4.4,1.7,8.9,2.6,13.3c0.8,4.1,7,2.4,6.3-1.7c-0.8-4.7-1.6-9.4-2.4-14.1c5.5-1.1,11.2-0.7,16.7,0.4
			c3.7,1.3,5.4-4.9,1.6-5.9c-5.8-1.5-11.4-1.6-17.1-1.1c-0.7,0-1.4,0-2.2,0c0.8-2,1.5-4,1.7-6.1c0.5-0.1,0.9-0.2,1.4-0.5
			C197,51.2,211.9,44.3,227.3,45.7z M207,37.7c-9.2,2.3-18.5,6.1-26.2,11.5c-0.2-0.4-0.4-0.7-0.7-1.1c-0.3-0.5-0.7-0.9-1.1-1.4
			c7.1-3.5,14.2-7,21-11.1C202.3,36.3,204.7,37,207,37.7z M152,33.9c10.6-9.1,25.5-5.2,37.4-1.5c0.3,0.1,0.7,0.2,1,0.3
			c-5.5,3.2-10.9,6.6-16.3,10.1c-5.8-3.6-13.5-5.3-19.5-4.5c-1.7,0.2-3.2,0.7-4.7,1.3c-0.1-1.5-0.2-3-0.3-4.5
			C150.5,34.8,151.3,34.5,152,33.9z M172.4,54.5c0.1,0.2,0.2,0.3,0.3,0.4c1.8,7.9-11.6,18.6-17.9,20.7c-5.4,1.8-15.2,3.3-17.2-4.1
			c-1.2-4.3,2-11.5,4.3-15C148.8,46.6,165,43.3,172.4,54.5z M82.1,41.1c8.5-10.3,20.5-17.5,32.8-22.3c6.8-2.6,16.6-7,22,0.1
			c4.6,6.1,7.1,15.9,8.2,23.5c-1.2,0.9-2.3,1.9-3.3,3c-0.6,0.5-1.3,0.9-1.9,1.5c-1.6-3.4-3.4-6.6-5.6-9.6c-2.5-3.3-7.3-0.6-5.6,3.2
			c1.6,3.4,3,6.8,4.1,10.3c-3.8,0.3-7.6,1-11.3,1.6c-4.7,0.7-2.8,8.3,2,7.3c2.6-0.5,5.3-0.9,8-1.4c-1.8,4.1-3.1,8.9-3.1,13.3
			c-14.7,4.4-29.2,7.8-44.7,4.5C64.5,72.2,73.4,51.6,82.1,41.1z M39.1,94.8c9.1-5.8,18.3-11.4,27.4-17.1c1.3,1.6,3,3.1,5.1,4.4
			c8.1,4.8,19.8,5.3,28.9,5.2c4.7,0,9.5-0.4,14.2-1.2c-2.4,1.3-4.8,2.7-7.2,4c-7.2,4-16.2,7.7-22.1,13.5c-1.2,1.2-2.1,2.4-2.7,3.7
			c-17.4-3.1-34.9-5.6-52.6-7C33,98,36.7,96.3,39.1,94.8z M28.4,122.9c-1-4.8-3.2-11.5-2.3-16.6c18.5,1.7,37,4.4,55.3,7.9
			c0,1.8,0.1,3.7,0.2,5.6c0.6,10.4,1.4,20.8,2.1,31.2c-10.8-1.9-21.5-4-32.1-6.6c-4.3-1-14.1-2-17.5-5
			C30.3,136.3,29.3,127.5,28.4,122.9z M75.6,300.6c-3-1-7.6-1.8-10.1-3.8c-3.6-2.8-3.8-7.3-4.5-11.4c-2.9-15.6-5.7-31.3-8.5-46.9
			c-5.3-29.2-11-58.2-17-87.3c15.7,3.9,31.6,7.1,47.6,9.7c0.4,0.1,0.9,0.1,1.3,0c2.6,36.6,5.8,73.3,9.1,109.8
			c0.9,9.9,1.8,19.7,2.7,29.6c0.2,2.3,0.3,4.7,0.6,7C89.7,305.1,82.6,303,75.6,300.6z M137.1,322.8c-1.2,0.6-6.7-2-7.9-2.4
			c-6.3-2.1-17.2-4.1-21.3-9.6c-2.5-3.4-2.2-9.4-2.7-13.5c-0.5-4.9-1.1-9.8-1.6-14.8c-3.8-35.5-7-70.9-9.7-106.5
			c-1.5-19.6-3.7-39.6-3.8-59.3c0-0.3,0-0.6,0-0.9c10.6,2.1,21.2,4.5,31.7,7c-0.4,0.9-0.8,1.8-1.1,2.8c-1.7,6.9,0.2,14.8,0.8,21.7
			c0.9,9.3,1.9,18.7,2.8,28c3.5,35.3,7.1,70.6,10.8,105.9c0.8,8.2,1.7,16.5,2.2,24.7c0.3,4.3,0.7,8.8,0.7,13.1
			C138.2,321.2,138.7,322,137.1,322.8z M212.7,338.6c-1.3,0-2.7-0.1-4.2-0.4c-7.5-1.5-14.9-3.5-22.2-5.3
			c-13.1-3.2-26.1-6.2-39.4-8.5c0.4-2.6,0.2-5.5,0.1-8c-0.3-10.2-1.2-20.4-2.1-30.6c-1.8-19.6-3.8-39.2-5.7-58.7
			c-2-19.5-3.9-39.1-5.9-58.6c14.4,5.7,29.2,10.4,44,14.9c9.2,2.8,20.6,8.1,31.2,8.5C211,240.7,213.2,289.5,212.7,338.6z
			 M317.1,255.5c-1.1,3.7-4.8,6.5-7.4,9.1c-5.1,5.1-10.3,10.1-15.7,15.1c-20.9,19.4-43.4,37.1-67.1,53c-1.9,1.3-3.7,2.5-5.6,3.4
			c1.6-48.1-0.1-96.7-7.5-144.2c0.2-0.2,0.4-0.3,0.6-0.5c1.7-0.3,3.3-0.8,4.9-1.4c29.1-12.4,53.4-37.5,77.1-57.6
			c5.6-4.8,11.3-9.5,16.9-14.3c1.6,27.3,2.7,54.7,3.4,82.1c0.4,15.8,0.5,31.7,0.6,47.5C317.3,250,317.8,253.1,317.1,255.5z
			 M319.4,96.8c-0.9,5.4-10.6,11.1-14.5,14.4c-5.7,4.9-11.4,9.7-17.1,14.6c-20.8,17.7-41.3,36.1-65.1,49.7c-2.4,1.3-4.9,3-7.6,4.2
			c-0.6-12.6-2.4-25.4-3.6-37.9c2.5-0.7,5-1.9,7.6-3.6c11.1-7.6,21.7-16.4,32.4-24.7c21-16.3,41.5-33.3,61.7-50.6
			c0.1,0.5,0.2,1.1,0.3,1.8c0.6,3.4,1.4,6.8,2.1,10.3c0.7,3.4,1.4,6.8,2,10.3C318.2,88.5,320,93.4,319.4,96.8z"/>
	</g>
</g>
<g class="st0">
	<path class="st1" d="M18.1,286.9c0-73.6,0-146.8,0-220.3c3.9-1,7.8-2.1,11.8-2.9c42.4-8.7,84.9-17.3,127.3-25.9
		c13.7-2.8,27.4-5.6,41.1-8.3c1.9-0.4,4.1-0.2,6,0.3c27.9,8.2,55.7,16.5,83.5,24.8c10.9,3.3,21.9,6.5,32.8,9.8
		c7.3,2.2,7.3,2.3,7.3,10c0,68.8,0,137.7,0,206.5c0,1.6,0,3.3,0,5.4c-4.3,1.1-8.6,2.2-12.9,3.1c-35.2,7.3-70.5,14.5-105.7,21.8
		c-21.4,4.4-42.8,8.8-64.2,13.1c-1.4,0.3-3,0.2-4.4-0.2C101.8,312.5,63,300.8,24.1,289C22.2,288.4,20.3,287.7,18.1,286.9z
		 M27.2,79.4c0,57.1,0,113.6,0,170.3c36.5,11,72.8,22,109.4,33c0-57,0-113.5,0-170.3C100.2,101.4,63.9,90.5,27.2,79.4z M149.7,112.9
		c0,57,0,113.5,0,170.5C205,272.2,260,261,314.8,249.8c0-57.2,0-113.9,0-170.8c-6.6,1.5-12.9,2.8-19.3,4.2c0,2.1,0,3.7,0,5.4
		c0,31.3,0,62.6,0,93.8c0,2.8-0.5,5.3-2.1,7.7c-2.8,4.2-6.9,6.5-11.6,7.6c-7.3,1.7-14.6,3.1-21.9,4.6c-24.7,5.1-49.5,10.2-74.2,15.2
		c-2,0.4-4.1,0.5-6.1,0.1c-3.7-0.7-7.1-2.4-8.9-5.8c-1-1.8-1.2-4.2-1.2-6.3c-0.1-30.5,0-60.9,0-91.4c0-1.6,0-3.2,0-5.2
		C162.6,110.4,156.3,111.6,149.7,112.9z M207.5,200.1c1.6-0.2,2.8-0.3,4-0.6c4.7-0.9,9.3-1.9,14-2.9c17.3-3.5,34.6-7,51.9-10.6
		c5.2-1.1,5.6-1.8,5.6-7.1c0-33.7,0-67.5,0-101.2c0-1.6,0.1-3.1,0.2-4.7c4.1-0.9,7.7-1.7,11.3-2.5c0-0.3,0-0.6,0-0.9
		c-9.7-2.9-19.3-5.8-29-8.7c-9.6-2.9-19.2-5.8-28.9-8.6c-9.7-2.8-19.2-6.1-29.2-8.4C207.5,96.1,207.5,147.8,207.5,200.1z
		 M194.5,202.9c0-53.4,0-106.4,0-160C146,52.9,97.8,62.7,48.7,72.7c1.7,0.7,2.6,1.1,3.5,1.4c29.5,8.9,59,17.8,88.5,26.6
		c1.7,0.5,3.8,0.5,5.6,0.2c7.3-1.3,14.6-2.9,22-4.4c4.5-0.9,8.9-1.8,13.9-2.8c0,37.4,0,74.3,0,111.7
		C186.6,204.5,190.5,203.7,194.5,202.9z M247.3,290.6c0.1-5,0.1-9.5,0-14.4c-10.2,2.1-19.8,4.1-29.3,6c0,5.1,0,9.6,0,14.4
		C227.8,294.6,237.4,292.7,247.3,290.6z M176.2,290.8c-9.2,1.9-17.9,3.6-26.5,5.4c0,5,0,9.6,0,14.5c9-1.9,17.7-3.7,26.5-5.5
		C176.2,300.5,176.2,296,176.2,290.8z M314.9,262.5c-9,1.9-17.6,3.6-26.2,5.4c0,4.9-0.2,9.4,0.1,14.2c9.1-1.9,17.5-3.6,26.1-5.4
		C314.9,272,314.9,267.6,314.9,262.5z M70.5,276.8c0-0.4,0-0.7,0-1.1c-9.8-2.9-19.5-5.9-29.4-8.8c0,5.1,0,9.7,0,14.2
		c2.3,1.1,4.2,1.2,6.5,0.7c4.5-1.1,9-1.8,13.5-2.7C64.3,278.3,67.4,277.5,70.5,276.8z M93.8,297.4c2,0.1,3.9,0.6,5.6,0.3
		c6.9-1.3,13.8-2.7,20.7-4.2c1.1-0.2,2.1-0.7,3.1-1.1c0-0.3-0.1-0.6-0.1-0.9c-9.6-2.9-19.3-5.8-29.3-8.8
		C93.8,287.7,93.8,292.1,93.8,297.4z M182.8,289.5c0,5.1,0,9.5,0,14.4c4.7-1,9.1-1.9,13.4-2.8c0-5,0-9.4,0-14.4
		C191.5,287.7,187.2,288.6,182.8,289.5z M267.5,272.2c-4.7,1-9.2,1.9-13.7,2.8c0,4.9,0,9.5,0,14.3c4.8-1,9.2-1.9,13.7-2.8
		C267.5,281.5,267.5,277.1,267.5,272.2z M111.2,301.4c0,0.3,0,0.7,0,1c4.6,1.4,9.2,2.7,14,4.1c0-3,0-5.3,0-8.1
		C120.3,299.5,115.7,300.4,111.2,301.4z M72.4,282.6c-5.1,1-9.8,2-14.5,3c0,0.2,0,0.4-0.1,0.6c4.8,1.5,9.6,2.9,14.6,4.4
		C72.4,287.7,72.4,285.3,72.4,282.6z"/>
	<path class="st2" d="M27.2,79.4c36.7,11.1,73,22,109.4,33c0,56.7,0,113.2,0,170.3c-36.6-11.1-73-22-109.4-33
		C27.2,193,27.2,136.6,27.2,79.4z"/>
	<path class="st2" d="M149.7,112.9c6.6-1.3,12.9-2.6,19.9-3.9c0,2.1,0,3.7,0,5.2c0,30.5,0,60.9,0,91.4c0,2.1,0.2,4.5,1.2,6.3
		c1.8,3.4,5.2,5.1,8.9,5.8c1.9,0.4,4.1,0.3,6.1-0.1c24.7-5,49.5-10.1,74.2-15.2c7.3-1.5,14.7-2.9,21.9-4.6c4.7-1.1,8.8-3.4,11.6-7.6
		c1.6-2.4,2.1-4.9,2.1-7.7c-0.1-31.3,0-62.6,0-93.8c0-1.6,0-3.2,0-5.4c6.4-1.4,12.7-2.8,19.3-4.2c0,57,0,113.6,0,170.8
		C260,261,205,272.2,149.7,283.4C149.7,226.4,149.7,169.9,149.7,112.9z"/>
	<path class="st2" d="M207.5,200.1c0-52.3,0-103.9,0-156.1c10,2.3,19.5,5.7,29.2,8.4c9.7,2.8,19.2,5.7,28.9,8.6
		c9.7,2.9,19.3,5.8,29,8.7c0,0.3,0,0.6,0,0.9c-3.6,0.8-7.3,1.6-11.3,2.5c-0.1,1.5-0.2,3.1-0.2,4.7c0,33.7,0,67.5,0,101.2
		c0,5.3-0.4,6-5.6,7.1c-17.3,3.6-34.6,7.1-51.9,10.6c-4.7,1-9.3,1.9-14,2.9C210.3,199.7,209.1,199.8,207.5,200.1z"/>
	<path class="st2" d="M194.5,202.9c-4,0.8-7.9,1.6-12.4,2.4c0-37.4,0-74.3,0-111.7c-5,1-9.5,1.9-13.9,2.8c-7.3,1.5-14.6,3.1-22,4.4
		c-1.8,0.3-3.8,0.3-5.6-0.2c-29.5-8.8-59-17.7-88.5-26.6c-0.9-0.3-1.7-0.7-3.5-1.4c49-10,97.2-19.8,145.8-29.7
		C194.5,96.5,194.5,149.6,194.5,202.9z"/>
	<path class="st2" d="M247.3,290.6c-9.9,2-19.4,4-29.3,6c0-4.8,0-9.3,0-14.4c9.4-1.9,19-3.9,29.3-6
		C247.4,281.2,247.3,285.7,247.3,290.6z"/>
	<path class="st2" d="M176.2,290.8c0,5.2,0,9.7,0,14.5c-8.8,1.8-17.5,3.6-26.5,5.5c0-5,0-9.5,0-14.5
		C158.3,294.4,167,292.7,176.2,290.8z"/>
	<path class="st2" d="M314.9,262.5c0,5.1,0,9.5,0,14.2c-8.5,1.8-17,3.5-26.1,5.4c-0.3-4.8-0.1-9.3-0.1-14.2
		C297.3,266.1,305.9,264.4,314.9,262.5z"/>
	<path class="st2" d="M70.5,276.8c-3.1,0.7-6.2,1.5-9.4,2.1c-4.5,0.9-9.1,1.6-13.5,2.7c-2.3,0.6-4.2,0.5-6.5-0.7c0-4.4,0-9,0-14.2
		c9.9,3,19.6,5.9,29.4,8.8C70.5,276.1,70.5,276.4,70.5,276.8z"/>
	<path class="st2" d="M93.8,297.4c0-5.3,0-9.7,0-14.7c10,3,19.6,5.9,29.3,8.8c0,0.3,0.1,0.6,0.1,0.9c-1,0.4-2,0.8-3.1,1.1
		c-6.9,1.4-13.8,2.9-20.7,4.2C97.7,298,95.8,297.5,93.8,297.4z"/>
	<path class="st2" d="M182.8,289.5c4.4-0.9,8.8-1.8,13.4-2.7c0,5,0,9.4,0,14.4c-4.3,0.9-8.7,1.8-13.4,2.8
		C182.8,299,182.8,294.5,182.8,289.5z"/>
	<path class="st2" d="M267.5,272.2c0,4.9,0,9.3,0,14.2c-4.4,0.9-8.9,1.8-13.7,2.8c0-4.8,0-9.4,0-14.3
		C258.3,274.1,262.8,273.2,267.5,272.2z"/>
	<path class="st2" d="M111.2,301.4c4.5-0.9,9.1-1.9,14-2.9c0,2.8,0,5.1,0,8.1c-4.8-1.4-9.4-2.8-14-4.1
		C111.2,302,111.2,301.7,111.2,301.4z"/>
	<path class="st2" d="M72.4,282.6c0,2.8,0,5.1,0,8.1c-5-1.5-9.8-3-14.6-4.4c0-0.2,0-0.4,0.1-0.6C62.6,284.6,67.4,283.6,72.4,282.6z"
		/>
</g>
<g class="st0">
	<path class="st1" d="M251.6,318.6c-8,5.4-16,10.7-23.9,16.1c-1.8,1.2-3.8,1-5.7,1.1c-8.9,0.7-17.8,1.2-26.7,1.7
		c-6.1,0.4-12.1,0.6-18.2,1c-7,0.4-14.1,1-21.1,1.4c-1.3,0.1-2.6,0-3.9-0.3c-14.3-3-28.6-6-42.9-9c-2.8-0.6-5.5-1.3-8.4-2
		c0-1.2,0-2.1,0-3c0-77.8,0-155.5,0-233.3c0-6.9,0.8-13.7,1.5-20.6c0.7-7.1,2.3-14.1,4.3-20.9c2.8-9.6,6.5-18.9,12.7-27
		c3-3.9,6.8-6.1,12-6.1c4.6,0,9.2-0.6,13.7-0.9s9-0.5,13.5-0.8c6.1-0.4,12.3-0.8,18.4-1.2c4.5-0.3,9-0.5,13.5-0.7
		c3.1-0.1,6.3-0.6,9.3-0.2c3,0.4,6,1.6,8.9,2.7c2.1,0.8,4.2,1.8,6.2,3c6.6,3.6,12.3,8.3,17.4,13.9C237,38.8,241,44.6,244,51
		c3.4,7.2,6.1,14.6,6.9,22.7c0.4,4.7,0.7,9.3,0.7,14c0,75.9,0,151.8,0,227.7C251.6,316.4,251.6,317.5,251.6,318.6z M221.2,328.2
		c0.5-4,0.4-147.1-0.2-149c-21.1,1.4-42.3,2.7-63.4,4.2c0,49.7,0,99.1,0,148.7C178.9,330.9,200,329.6,221.2,328.2z M149.9,331.6
		c0-1.3,0-2.1,0-2.9c0-48.4,0-96.9,0-145.3c0-1.7-0.5-3.1-1.4-4.5c-4.6-6.6-9.2-13.2-13.8-19.8c-8.3-11.9-16.6-23.9-24.9-35.8
		c-0.3-0.4-0.7-0.7-1.2-1.3c0,67.1,0,133.9,0,200.8C122.3,325.8,135.9,328.6,149.9,331.6z M194.7,93.7c-21.4,1.4-42.6,2.7-63.6,4.2
		c-0.1,0.5-0.2,0.6-0.2,0.8c0,13.6,0,27.1,0,40.7c0,0.8,0.3,1.6,0.8,2.2c5.3,7.6,10.6,15.2,15.8,22.9c0.7,1.1,1.6,1.5,2.9,1.4
		c3.2-0.2,6.4-0.3,9.6-0.5c9-0.5,18-1.1,27-1.7c2.6-0.2,5.2-0.4,7.8-0.6C194.7,139.9,194.7,117,194.7,93.7z M131,90.2
		c21.3-1.4,42.5-2.8,63.5-4.2c0.5-3.4,0.4-62.5-0.2-64.4c-21.1,1.3-42.2,2.5-63.3,4C131,47.3,131,68.6,131,90.2z M229,324.6
		c0.9-0.5,1.5-0.8,2-1.2c3.7-2.5,7.3-5,11.1-7.4c1.4-0.9,1.8-1.9,1.8-3.4c0-60.9,0-121.8,0-182.7c0-0.7-0.1-1.3-0.1-2
		c-0.6,0.6-0.8,1.2-0.9,1.8c-4.4,14.6-8.8,29.2-13.1,43.8c-0.4,1.4-0.6,2.9-0.6,4.4c0,47.9,0,95.9,0,143.8
		C229,322.5,229,323.3,229,324.6z M202.5,22.4c0,21.7,0,42.8,0,64.2c13.7,2.9,27.3,5.8,41,8.6c0.2-0.5,0.3-0.7,0.3-0.9
		c-0.2-6.5,0.4-13-0.4-19.4c-1.3-9.8-4.9-18.7-9.9-27c-3-4.9-6.9-9.2-11-13.2c-4-4-8.5-7.2-13.6-9.6
		C206.9,24.1,204.9,23.3,202.5,22.4z M202.5,94.3c0,23.4,0,46.3,0,69.5c7,1.4,13.9,3,21,4.2c6.5-21.9,12.9-43.4,19.4-65.2
		C229.4,99.9,216.1,97.1,202.5,94.3z M123.2,32.3c-0.2-0.1-0.4-0.2-0.6-0.3c-1,1.8-2.2,3.5-3,5.4c-2.1,5.1-4.4,10.1-6,15.3
		c-2.9,9.4-4.3,19.2-5,29c-0.4,6.1-0.2,12.3-0.2,18.5c0,0.5,0.1,1,0.2,1.8c5-3.4,9.8-6.6,14.5-9.8C123.2,72.2,123.2,52.3,123.2,32.3
		z M109.9,110.3c4.3,6.2,8.6,12.3,12.9,18.4c0.1-0.1,0.3-0.1,0.4-0.2c0-8.9,0-17.9,0-27.2C118.6,104.5,114.3,107.3,109.9,110.3z
		 M205.7,172.6c0-0.2,0-0.4,0-0.6c-2.6-0.5-5.3-1.3-7.9-1.3c-4.1-0.1-8.2,0.4-12.3,0.6c-7.7,0.5-15.4,1-23.1,1.5
		c-2.7,0.2-5.5,0.4-8.3,0.6c0.4,2,1.5,2.5,3.2,2.4c2.5-0.2,5.1-0.3,7.6-0.5c4.2-0.3,8.3-0.5,12.5-0.8c5.8-0.4,11.6-0.8,17.4-1.2
		C198.5,173.1,202.1,172.8,205.7,172.6z"/>
	<path class="st2" d="M221.2,328.2c-21.2,1.3-42.3,2.6-63.6,4c0-49.6,0-99,0-148.7c21.1-1.5,42.3-2.8,63.4-4.2
		C221.6,181.1,221.8,324.2,221.2,328.2z"/>
	<path class="st2" d="M149.9,331.6c-14.1-3-27.7-5.8-41.4-8.7c0-67,0-133.7,0-200.8c0.6,0.6,1,0.9,1.2,1.3
		c8.3,11.9,16.6,23.8,24.9,35.8c4.6,6.6,9.2,13.2,13.8,19.8c1,1.4,1.4,2.8,1.4,4.5c0,48.4,0,96.9,0,145.3
		C149.9,329.5,149.9,330.3,149.9,331.6z"/>
	<path class="st2" d="M194.7,93.7c0,23.3,0,46.2,0,69.4c-2.6,0.2-5.2,0.5-7.8,0.6c-9,0.6-18,1.1-27,1.7c-3.2,0.2-6.4,0.3-9.6,0.5
		c-1.3,0.1-2.1-0.4-2.9-1.4c-5.3-7.6-10.6-15.2-15.8-22.9c-0.4-0.6-0.8-1.5-0.8-2.2c0-13.6,0-27.1,0-40.7c0-0.2,0.1-0.3,0.2-0.8
		C152.1,96.4,173.3,95.1,194.7,93.7z"/>
	<path class="st2" d="M131,90.2c0-21.5,0-42.9,0-64.5c21.1-1.5,42.3-2.6,63.3-4c0.6,1.9,0.7,61,0.2,64.4
		C173.5,87.4,152.3,88.8,131,90.2z"/>
	<path class="st2" d="M229,324.6c0-1.3,0-2.1,0-2.9c0-47.9,0-95.9,0-143.8c0-1.5,0.2-3,0.6-4.4c4.3-14.6,8.7-29.2,13.1-43.8
		c0.2-0.6,0.4-1.2,0.9-1.8c0,0.7,0.1,1.3,0.1,2c0,60.9,0,121.8,0,182.7c0,1.6-0.4,2.5-1.8,3.4c-3.8,2.4-7.4,4.9-11.1,7.4
		C230.5,323.8,230,324.1,229,324.6z"/>
	<path class="st2" d="M202.5,22.4c2.3,1,4.4,1.7,6.4,2.6c5.1,2.4,9.6,5.6,13.6,9.6c4.1,4,8,8.3,11,13.2c5.1,8.4,8.7,17.2,9.9,27
		c0.8,6.5,0.3,13,0.4,19.4c0,0.2-0.2,0.4-0.3,0.9c-13.6-2.9-27.2-5.7-41-8.6C202.5,65.2,202.5,44,202.5,22.4z"/>
	<path class="st2" d="M202.5,94.3c13.5,2.9,26.8,5.7,40.4,8.5c-6.5,21.8-12.9,43.3-19.4,65.2c-7-1.3-13.9-2.8-21-4.2
		C202.5,140.6,202.5,117.6,202.5,94.3z"/>
	<path class="st2" d="M123.2,32.3c0,19.9,0,39.9,0,60c-4.7,3.2-9.5,6.4-14.5,9.8c-0.1-0.8-0.2-1.3-0.2-1.8c0-6.2-0.2-12.3,0.2-18.5
		c0.7-9.8,2.1-19.6,5-29c1.6-5.2,3.8-10.3,6-15.3c0.8-1.9,2-3.6,3-5.4C122.9,32.2,123,32.3,123.2,32.3z"/>
	<path class="st2" d="M109.9,110.3c4.4-3,8.7-5.9,13.2-9c0,9.3,0,18.3,0,27.2c-0.1,0.1-0.3,0.1-0.4,0.2
		C118.5,122.7,114.2,116.6,109.9,110.3z"/>
	<path class="st2" d="M205.7,172.6c-3.6,0.2-7.2,0.5-10.8,0.7c-5.8,0.4-11.6,0.8-17.4,1.2c-4.2,0.3-8.3,0.5-12.5,0.8
		c-2.5,0.2-5.1,0.3-7.6,0.5c-1.7,0.2-2.8-0.4-3.2-2.4c2.8-0.2,5.5-0.4,8.3-0.6c7.7-0.5,15.4-1,23.1-1.5c4.1-0.3,8.2-0.7,12.3-0.6
		c2.7,0,5.3,0.8,7.9,1.3C205.7,172.2,205.7,172.4,205.7,172.6z"/>
</g>
<g class="st0">
	<path class="st1" d="M30,308.7c0-62.8,0-125.3,0-188.2c13.7,0,27.3,0,41.1,0c0-25.9,0-51.5,0-77.3c3.3,0,6.3,0,9.8,0
		c0.2,3.5,0.1,7,0.1,10.6c0,3.7,0,7.5,0,11.2c0,3.6,0,7.3,0,10.9c0,3.7,0,7.5,0,11.2c0,3.6,0,7.3,0,10.9c0,3.7,0,7.5,0,11.2
		c0,3.6,0,7.2,0,11c60.8,0,121.3,0,182.3,0c0.2-3.5,0.1-7.1,0.1-10.6c0-3.7,0-7.5,0-11.2c0-3.6,0-7.3,0-10.9c0-3.7,0-7.5,0-11.2
		c0-3.6,0-7.3,0-10.9c0-3.7,0-7.5,0-11.2c0-3.6,0-7.2,0-11c3.4,0,6.5,0,9.9,0c0,25.6,0,51.2,0,77.1c13.8,0,27.3,0,40.6,0
		c0.7,2.5,1,183.2,0.3,188.5C219.7,308.7,124.9,308.7,30,308.7z M40,298.8c88.4,0,176.4,0,264.4,0c0.7-4.3,0.5-166-0.2-168.2
		c-88,0-176.1,0-264.2,0C40,186.7,40,242.6,40,298.8z"/>
	<path class="st2" d="M40,298.8c0-56.1,0-112.1,0-168.2c88.2,0,176.2,0,264.2,0c0.7,2.2,0.9,163.9,0.2,168.2
		C216.5,298.8,128.4,298.8,40,298.8z"/>
</g>
<g>
	<path d="M244,313.6c-2,0.5-4,1-6.1,1.5c-16.9,4-33.9,7.9-50.8,11.9c-7.2,1.7-14.3,3.4-21.5,5c-0.8,0.2-1.7,0.1-2.5-0.1
		c-14.8-3.9-29.6-7.8-44.4-11.7c-1.3-0.4-2.6-0.8-4.2-1.4c0-0.9,0-1.9,0-2.9c0-72.9,0-145.8,0-218.7c0-16.6,0-33.1,0-49.7
		c0-3.5,1-6.7,3.3-9.5c1.2-1.4,2.7-2.4,4.5-2.8c9.3-2.2,18.6-4.3,27.9-6.5c12.7-3,25.4-5.9,38.1-9c3.1-0.7,6,0.7,7.9,3.4
		c1.3,1.9,1.7,3.9,1.7,6.2c0,19.8,0,39.7,0,59.5c0,1,0,2,0,3.1c0.6,0.2,1.1,0.4,1.7,0.6c4.3,1.1,8.6,2.3,12.9,3.3
		c2.6,0.6,4.6,1.8,6.4,3.8c4.3,4.8,8.8,9.5,13.2,14.3c3.8,4.1,7.6,8.2,11.4,12.4c0.4,0.5,0.7,1.3,0.8,1.9c0.1,2.6,0,5.3,0,7.9
		c0,1.4-0.4,2.4-1.9,2.7c-0.6,0.1-1.1,0.5-1.6,0.6c-4.4,0.5-6.4,3.5-7.7,7.1c-1.5,4-1.7,8-1,12.2c0.9,5.7,2.8,10.9,6.9,15
		c1.3,1.3,2.8,2.5,4.4,3.6c0.8,0.5,1.1,1.1,1.1,1.9c0,3.1,0,6.3,0,9.5c-0.9,0.5-1.8,1.1-2.7,1.4c-3.5,1.4-5.4,4.3-6.4,7.6
		c-2.9,9.3-1,17.9,4,26c0.8,1.3,1.9,2.6,3.1,3.6c1.5,1.3,2.1,2.8,1.9,4.8c-0.1,2.5,0,5,0,7.5c-0.9,0.5-1.6,1.1-2.5,1.4
		c-2.9,1-4.6,3.3-5.8,5.9c-1.1,2.3-1.7,4.7-1.9,7.3c-0.6,6.7,1,12.8,4,18.7c1.3,2.5,3.2,4.5,5.3,6.3c0.6,0.5,0.9,1,0.9,1.8
		c0,10.6,0,21.2-0.1,31.7C244.2,313.1,244.2,313.2,244,313.6z M121.3,116.9c0,65.9,0,131.5,0,197.2c13.1,3.5,26.2,6.9,39.6,10.4
		c0-1,0-1.7,0-2.5c0-5.6-0.1-11.2,0.1-16.9c0.1-2.7-0.3-5-2.5-6.7c-0.1-0.1-0.2-0.2-0.2-0.4c-3-4.1-5.2-8.5-6.5-13.5
		c-1.6-6.2-1.7-12.3,0-18.5c1.4-5.2,3.9-9.7,8.9-12.4c0.1-0.1,0.2-0.2,0.1-0.1c0.8-2.7-0.2-4.4-2-5.9c-0.3-0.2-0.6-0.5-0.7-0.8
		c-2.4-3.8-4.7-7.7-5.9-12.1c-2.1-7.5-2.2-14.9,0.6-22.3c1.4-3.7,3.4-7.1,7-9.2c1.9-1.1,1.9-3.5,0.2-4.8c-0.9-0.7-1.9-1.4-2.6-2.3
		c-7.5-9.2-10.7-19.6-8-31.3c1.2-5.1,3.5-9.7,8.3-12.5c1.1-0.6,2.2-1.1,3.4-1.6c-0.1-1.2,0.4-2.4-0.6-3.5c-3.5-3.8-7-7.6-10.5-11.4
		c-3.2-3.5-6.5-6.9-9.6-10.5c-2.7-3.1-5.5-6-10-6.3c-0.1,0-0.1-0.1-0.2-0.1C127.1,118.5,124.3,117.7,121.3,116.9z M121.2,109.9
		c0.8,0.3,1.4,0.5,2,0.7c4.2,1.1,8.4,2.4,12.7,3.3c2.9,0.6,4.9,2.2,6.8,4.4c3.2,3.6,6.5,7.1,9.8,10.6c0.8,0.9,1.5,1.1,2.7,0.8
		c10.5-2.5,21-4.9,31.5-7.3c1.5-0.3,2.9-0.7,4.5-1.1c0-0.9,0-1.6,0-2.3c0-29.6,0-59.2,0-88.9c0-0.5,0-1,0-1.5
		c-0.2-1.6-0.9-2.1-2.5-1.7c-0.6,0.1-1.1,0.2-1.7,0.4c-11.6,2.7-23.1,5.4-34.7,8.1c-9.1,2.1-18.2,4.2-27.2,6.3
		c-1.9,0.4-2.9,1.7-3.3,3.4c-0.3,1.1-0.4,2.3-0.4,3.4c0,19.8,0,39.5,0,59.3C121.2,108.4,121.2,109.1,121.2,109.9z M167.7,324.7
		c23.4-5.5,46.6-10.9,69.8-16.3c0-7.4,0-14.6,0-22.2c-23.4,5.5-46.6,10.9-69.8,16.3C167.7,309.9,167.7,317,167.7,324.7z
		 M197.9,223.1c0.4,0.2,0.7,0.4,1,0.5c8.6,2.3,17.3,4.7,25.9,7c0.5,0.1,1,0.2,1.5,0.1c2.6-0.6,5.2-1.2,8-1.8
		c-7.3-11.2-9.7-22.8-4.5-35.8c-10.9,2.6-21.4,5-31.9,7.5C197.9,208.2,197.9,215.7,197.9,223.1z M233.3,178.1
		c-8.2-10.7-10.8-22.3-6.2-35.4c-9.9,2.4-19.6,4.5-29.1,6.9c0,7.8,0,15.3,0,22.8c1.1,0.3,2.2,0.6,3.2,0.9c7.1,1.9,14.3,3.5,21.3,5.7
		C226.4,180.2,229.6,178.8,233.3,178.1z M226.7,281.7c-0.9-0.3-1.3-0.5-1.8-0.6c-9.6-2.6-19.2-5.1-28.9-7.6c-1-0.3-2.2-0.2-3.2,0.1
		c-9,2.1-18,4.2-27,6.3c-2.6,0.6-5.2,1.2-7.8,1.9c1.1,5.1,2.9,9.6,6.3,13.4c0.8,0.8,1.5,1,2.5,0.7c5.7-1.4,11.5-2.7,17.2-4.1
		c10.3-2.4,20.5-4.8,30.8-7.2C218.6,283.6,222.4,282.7,226.7,281.7z M191,151.3c-0.6,0.1-1,0-1.4,0.1c-7.1,1.7-14.2,3.3-21.3,5
		c-1.2,0.3-2.4,0.7-3.6,0.8c-4.4,0.4-6.8,3.1-8.2,6.8c-1.7,4.4-1.8,9.1-0.9,13.7c0.2,0.8,0.4,1.6,0.6,2.6
		c11.8-2.7,23.3-5.4,34.9-8.1C191,165.2,191,158.4,191,151.3z M229.9,244.1c-10.9,2.5-21.4,5-31.9,7.5c0,5.2,0,10.2,0,15.5
		c5.6,1.5,11.2,3,16.8,4.5c5.6,1.4,11.2,3.1,17.1,4.4C226.7,265.5,225.2,255.2,229.9,244.1z M191,202.3c-0.5,0.1-0.9,0.1-1.3,0.2
		c-7.5,1.8-15,3.7-22.6,5.3c-4.4,0.9-6.9,3.6-8.4,7.6c-1.9,5-1.5,10.1-0.7,15.5c11.1-2.6,22.1-5.2,33.1-7.8
		C191,216.1,191,209.3,191,202.3z M234.4,126.8c-1-1.1-1.8-2-2.6-2.9c-3.2-3.5-6.4-7-9.6-10.5c-3-3.3-6-6.5-9.1-9.7
		c-0.6-0.6-1.4-1.1-2.2-1.3c-3.7-1-7.5-1.9-11.2-2.9c-0.5-0.1-1.1-0.2-1.8-0.3c0,7.5,0,14.7,0,22c0.3,0.1,0.5,0.3,0.7,0.3
		c8.8,2.3,17.6,4.7,26.4,6.9c0.5,0.1,1.2,0.2,1.7,0.1C229.2,128.1,231.6,127.5,234.4,126.8z M191,253.4c-0.6,0.1-1.1,0.1-1.5,0.2
		c-7.9,1.9-15.9,3.7-23.8,5.6c-1.3,0.3-2.7,0.9-3.6,1.9c-3.7,3.7-4.9,8.4-4.7,13.8c11.3-2.7,22.4-5.2,33.6-7.9
		C191,262.4,191,258,191,253.4z M211.5,183.2c-0.4-0.3-0.5-0.5-0.7-0.5c-5.1-1.3-10.1-2.7-15.2-4c-0.8-0.2-1.7-0.1-2.6,0.1
		c-10.7,2.4-21.4,4.9-32.1,7.4c-0.7,0.2-1.5,0.5-2.4,0.8c1.5,2.5,3,4.5,5.1,6.2c0.9,0.8,1.9,0.8,3,0.6
		C181.5,190.2,196.4,186.8,211.5,183.2z M160.1,237.4c1.2,2.4,2.3,4.5,4,6.3c1,1.1,1.9,1.3,3.2,1c14.4-3.4,28.7-6.8,43.1-10.1
		c0.4-0.1,0.8-0.3,1.4-0.5c-0.5-0.2-0.8-0.3-1.1-0.4c-5-1.4-9.9-2.8-14.9-4c-0.9-0.2-1.9-0.1-2.8,0.1c-6.8,1.6-13.6,3.2-20.4,4.8
		C168.5,235.4,164.4,236.4,160.1,237.4z M158.8,135.8c2,2.1,3.7,4,5.4,5.9c0.9,1,1.7,1.3,3,1c14.4-3.4,28.7-6.8,43.1-10.1
		c0.4-0.1,0.8-0.3,1.5-0.6c-5.5-1.4-10.6-2.7-15.7-4.2c-1.4-0.4-2.6-0.1-3.8,0.2c-6.1,1.4-12.2,2.8-18.3,4.2
		C168.9,133.4,164,134.5,158.8,135.8z"/>
</g>
</svg>
