<?xml version="1.0" standalone="no"?>
<!DOCTYPE svg PUBLIC "-//W3C//DTD SVG 20010904//EN"
 "http://www.w3.org/TR/2001/REC-SVG-20010904/DTD/svg10.dtd">
<svg version="1.0" xmlns="http://www.w3.org/2000/svg"
 width="512.000000pt" height="512.000000pt" viewBox="0 0 512.000000 512.000000"
 preserveAspectRatio="xMidYMid meet">

<g transform="translate(0.000000,512.000000) scale(0.100000,-0.100000)"
fill="#000000" stroke="none">
<path d="M3990 5104 c-266 -57 -470 -311 -470 -584 0 -324 276 -600 600 -600
276 0 528 205 585 475 43 204 -16 397 -164 546 -149 149 -347 207 -551 163z
m236 -416 c19 -13 47 -41 62 -62 23 -33 27 -50 27 -106 0 -56 -4 -73 -27 -106
-46 -65 -91 -89 -168 -89 -54 0 -73 5 -103 25 -77 52 -111 140 -88 227 13 48
79 119 125 133 49 15 133 4 172 -22z"/>
<path d="M1280 5094 c-266 -57 -470 -311 -470 -584 0 -324 276 -600 600 -600
276 0 528 205 585 475 43 204 -16 397 -164 546 -149 149 -347 207 -551 163z
m236 -416 c19 -13 47 -41 62 -62 23 -33 27 -50 27 -106 0 -56 -4 -73 -27 -106
-46 -65 -91 -89 -168 -89 -54 0 -73 5 -103 25 -77 52 -111 140 -88 227 13 48
79 119 125 133 49 15 133 4 172 -22z"/>
<path d="M3590 3714 c-223 -48 -409 -237 -456 -463 -13 -63 -15 -168 -12 -700
l3 -626 23 -65 c56 -156 169 -288 299 -351 l72 -34 3 -670 3 -670 24 -38 c13
-21 42 -50 64 -65 34 -22 52 -27 106 -27 79 0 128 25 169 88 l27 41 0 785 0
786 -24 38 c-35 57 -84 85 -171 97 -85 12 -130 38 -170 97 l-25 37 0 611 0
612 27 39 c15 21 44 50 65 64 l37 25 466 0 466 0 37 -25 c21 -14 50 -43 65
-64 l27 -39 0 -612 0 -611 -25 -37 c-40 -59 -85 -85 -170 -97 -87 -12 -136
-40 -171 -97 l-24 -38 0 -785 0 -785 24 -38 c13 -21 42 -50 64 -65 34 -23 52
-27 107 -27 55 0 73 4 107 27 22 15 51 44 64 65 l24 38 3 670 3 670 72 34
c130 63 243 195 299 351 l23 65 3 626 c3 532 1 637 -12 700 -48 229 -234 416
-461 464 -99 21 -958 20 -1055 -1z"/>
<path d="M830 3664 c-221 -47 -408 -236 -455 -459 -12 -55 -15 -162 -15 -511
l0 -442 -112 -3 c-130 -5 -169 -21 -216 -92 l-27 -41 -3 -1058 -2 -1058 1492
2 1493 3 38 24 c21 13 50 42 65 64 23 34 27 52 27 107 0 55 -4 73 -27 107 -15
22 -44 51 -65 64 l-38 24 -1292 3 -1293 2 0 725 0 725 1093 2 1093 3 41 27
c63 41 88 90 88 169 0 54 -5 72 -27 106 -15 22 -44 51 -65 64 l-38 24 -913 3
-913 2 3 449 3 448 27 39 c15 21 44 50 65 64 l37 25 466 0 466 0 37 -25 c21
-14 50 -43 65 -64 26 -38 27 -43 32 -221 5 -176 6 -183 32 -222 41 -63 90 -88
169 -88 54 0 72 5 106 27 22 15 51 44 64 65 22 35 24 49 27 208 3 126 -1 190
-12 245 -48 230 -234 417 -461 465 -99 21 -958 20 -1055 -1z"/>
</g>
</svg>
